<svg width="20" height="20" viewBox="0 0 20 20" fill="none" xmlns="http://www.w3.org/2000/svg">
  <path
    d="M17.0508 2.91C15.1808 1.03 12.6908 0 10.0408 0C4.58078 0 0.130781 4.45 0.130781 9.91C0.130781 11.66 0.590781 13.36 1.45078 14.86L0.0507812 20L5.30078 18.62C6.75078 19.41 8.38078 19.83 10.0408 19.83C15.5008 19.83 19.9508 15.38 19.9508 9.92C19.9508 7.27 18.9208 4.78 17.0508 2.91ZM10.0408 18.15C8.56078 18.15 7.11078 17.75 5.84078 17L5.54078 16.82L2.42078 17.64L3.25078 14.6L3.05078 14.29C2.23078 12.98 1.79078 11.46 1.79078 9.91C1.79078 5.37 5.49078 1.67 10.0308 1.67C12.2308 1.67 14.3008 2.53 15.8508 4.09C17.4108 5.65 18.2608 7.72 18.2608 9.92C18.2808 14.46 14.5808 18.15 10.0408 18.15ZM14.5608 11.99C14.3108 11.87 13.0908 11.27 12.8708 11.18C12.6408 11.1 12.4808 11.06 12.3108 11.3C12.1408 11.55 11.6708 12.11 11.5308 12.27C11.3908 12.44 11.2408 12.46 10.9908 12.33C10.7408 12.21 9.94078 11.94 9.00078 11.1C8.26078 10.44 7.77078 9.63 7.62078 9.38C7.48078 9.13 7.60078 9 7.73078 8.87C7.84078 8.76 7.98078 8.58 8.10078 8.44C8.22078 8.3 8.27078 8.19 8.35078 8.03C8.43078 7.86 8.39078 7.72 8.33078 7.6C8.27078 7.48 7.77078 6.26 7.57078 5.76C7.37078 5.28 7.16078 5.34 7.01078 5.33C6.86078 5.33 6.70078 5.33 6.53078 5.33C6.36078 5.33 6.10078 5.39 5.87078 5.64C5.65078 5.89 5.01078 6.49 5.01078 7.71C5.01078 8.93 5.90078 10.11 6.02078 10.27C6.14078 10.44 7.77078 12.94 10.2508 14.01C10.8408 14.27 11.3008 14.42 11.6608 14.53C12.2508 14.72 12.7908 14.69 13.2208 14.63C13.7008 14.56 14.6908 14.03 14.8908 13.45C15.1008 12.87 15.1008 12.38 15.0308 12.27C14.9608 12.16 14.8108 12.11 14.5608 11.99Z"
    fill="inherit"/>
</svg>
